<?xml version="1.0" encoding="UTF-8"?>
<!DOCTYPE svg PUBLIC "-//W3C//DTD SVG 1.1//EN" "http://www.w3.org/Graphics/SVG/1.1/DTD/svg11.dtd">
<svg xmlns="http://www.w3.org/2000/svg" version="1.1" width="832px" height="300px" style="shape-rendering:geometricPrecision; text-rendering:geometricPrecision; image-rendering:optimizeQuality; fill-rule:evenodd; clip-rule:evenodd" xmlns:xlink="http://www.w3.org/1999/xlink">
<g><path style="opacity:0.957" fill="#fefefe" d="M 130.5,21.5 C 131.966,22.347 132.8,23.6803 133,25.5C 136.562,49.751 143.228,73.0843 153,95.5C 161.669,111.835 174.502,123.669 191.5,131C 200.363,134.399 209.363,137.399 218.5,140C 231.963,142.989 245.296,146.156 258.5,149.5C 240.44,153.416 222.44,157.916 204.5,163C 170.033,173.806 149.199,196.972 142,232.5C 138.557,247.223 135.057,261.89 131.5,276.5C 130.914,276.291 130.414,275.957 130,275.5C 126.364,253.289 120.697,231.622 113,210.5C 103.546,187.715 87.0464,172.548 63.5,165C 44.5452,158.809 25.2119,154.142 5.5,151C 4.83333,150.333 4.16667,149.667 3.5,149C 24.5522,145.189 45.2189,139.856 65.5,133C 88.2779,124.367 104.445,108.867 114,86.5C 121.538,65.3471 127.038,43.6804 130.5,21.5 Z"/></g>
<g><path style="opacity:0.862" fill="#fefefe" d="M 737.5,80.5 C 750.565,81.3968 755.065,88.0635 751,100.5C 745.348,106.497 738.848,107.664 731.5,104C 725.957,98.4901 725.124,92.3234 729,85.5C 731.523,83.1733 734.357,81.5066 737.5,80.5 Z"/></g>
<g><path style="opacity:0.896" fill="#fefefe" d="M 773.5,81.5 C 779.509,81.3338 785.509,81.5005 791.5,82C 792.849,82.7724 793.682,83.9391 794,85.5C 794.333,116.5 794.667,147.5 795,178.5C 795.5,179 796,179.5 796.5,180C 799.426,180.218 802.26,180.718 805,181.5C 806.363,187.041 806.529,192.541 805.5,198C 794.741,201.101 785.241,198.934 777,191.5C 776,189.5 775,187.5 774,185.5C 772.862,163.355 772.028,141.189 771.5,119C 772.833,108.667 772.833,98.3333 771.5,88C 771.875,85.7114 772.541,83.5447 773.5,81.5 Z"/></g>
<g><path style="opacity:0.915" fill="#fefefe" d="M 428.5,86.5 C 446.157,84.3637 461.324,89.3637 474,101.5C 475.84,103.681 477.007,106.181 477.5,109C 477.215,110.89 476.215,112.223 474.5,113C 470.509,115.578 466.343,117.745 462,119.5C 461.167,119.333 460.333,119.167 459.5,119C 456.573,112.407 451.573,108.407 444.5,107C 422.275,103.014 410.108,112.181 408,134.5C 406.895,145.046 407.895,155.379 411,165.5C 413.167,171.667 417.333,175.833 423.5,178C 431.948,180.201 440.281,179.868 448.5,177C 455.375,171.557 458.042,164.39 456.5,155.5C 448.493,155.666 440.493,155.5 432.5,155C 432,154.5 431.5,154 431,153.5C 430.333,148.5 430.333,143.5 431,138.5C 431.5,138 432,137.5 432.5,137C 447.5,136.333 462.5,136.333 477.5,137C 478,137.5 478.5,138 479,138.5C 479.667,157.5 479.667,176.5 479,195.5C 478.5,196 478,196.5 477.5,197C 471.167,197.667 464.833,197.667 458.5,197C 457.861,192.879 457.195,188.713 456.5,184.5C 450.076,194.715 440.742,199.715 428.5,199.5C 409.341,199.021 396.174,190.021 389,172.5C 383.025,153.494 383.025,134.494 389,115.5C 396.987,98.6677 410.153,89.001 428.5,86.5 Z"/></g>
<g><path style="opacity:0.926" fill="#fefefe" d="M 368.5,106.5 C 351.82,106.167 335.153,106.501 318.5,107.5C 318.624,108.107 318.957,108.44 319.5,108.5C 319.5,116.167 319.5,123.833 319.5,131.5C 333.504,131.333 347.504,131.5 361.5,132C 362,132.5 362.5,133 363,133.5C 363.667,138.833 363.667,144.167 363,149.5C 362.617,150.056 362.117,150.389 361.5,150.5C 347.328,149.174 332.994,149.174 318.5,150.5C 318.624,151.107 318.957,151.44 319.5,151.5C 319.5,160.167 319.5,168.833 319.5,177.5C 318.957,177.56 318.624,177.893 318.5,178.5C 334.995,179.827 351.328,179.827 367.5,178.5C 369.411,178.574 370.578,179.574 371,181.5C 371.609,186.861 371.442,192.195 370.5,197.5C 345.833,197.5 321.167,197.5 296.5,197.5C 296.167,161.161 296.5,124.827 297.5,88.5C 321.51,87.7286 345.51,87.7286 369.5,88.5C 369.823,94.69 369.49,100.69 368.5,106.5 Z"/></g>
<g><path style="opacity:0.079" fill="#f1f1f1" d="M 368.5,106.5 C 352.167,107.167 335.833,107.833 319.5,108.5C 318.957,108.44 318.624,108.107 318.5,107.5C 335.153,106.501 351.82,106.167 368.5,106.5 Z"/></g>
<g><path style="opacity:0.928" fill="#fefefe" d="M 538.5,113.5 C 551.84,111.048 562.174,115.381 569.5,126.5C 581.082,112.538 595.082,109.704 611.5,118C 617.444,122.722 620.611,128.888 621,136.5C 621.821,156.543 621.654,176.543 620.5,196.5C 613.61,197.811 606.777,197.811 600,196.5C 599.667,178.167 599.333,159.833 599,141.5C 598.908,134.689 595.408,131.355 588.5,131.5C 580.174,131.565 575.007,135.565 573,143.5C 572.667,157.833 572.333,172.167 572,186.5C 571.793,190.089 571.293,193.589 570.5,197C 563.918,197.81 557.418,197.643 551,196.5C 549.743,176.871 549.076,157.204 549,137.5C 546.81,133.733 543.477,131.733 539,131.5C 531.136,131.375 526.136,135.041 524,142.5C 522.735,160.456 522.069,178.456 522,196.5C 515.582,197.643 509.082,197.81 502.5,197C 502,196.5 501.5,196 501,195.5C 500.333,169.167 500.333,142.833 501,116.5C 507.374,114.009 513.874,113.842 520.5,116C 521.059,118.941 521.893,121.775 523,124.5C 526.962,119.023 532.129,115.356 538.5,113.5 Z"/></g>
<g><path style="opacity:0.913" fill="#fefefe" d="M 664.5,113.5 C 672.561,113.179 680.561,113.679 688.5,115C 697.514,118.015 703.014,124.182 705,133.5C 705.333,148.5 705.667,163.5 706,178.5C 708.773,180.047 711.773,181.047 715,181.5C 715.453,184.84 715.953,188.174 716.5,191.5C 716.695,193.725 715.861,195.391 714,196.5C 702.219,200.906 692.886,197.906 686,187.5C 675.822,199.834 663.322,202.667 648.5,196C 638.05,188.319 634.55,178.152 638,165.5C 640.106,159.728 643.939,155.562 649.5,153C 659.365,149.827 669.365,147.16 679.5,145C 685.207,141.666 685.874,137.499 681.5,132.5C 674.03,130.898 666.697,131.398 659.5,134C 655.895,136.383 652.395,138.883 649,141.5C 645.309,138.482 642.309,134.816 640,130.5C 639.333,129.167 639.333,127.833 640,126.5C 647.177,120.163 655.344,115.83 664.5,113.5 Z M 680.5,158.5 C 681.833,158.5 683.167,158.5 684.5,158.5C 685.061,164.732 684.228,170.732 682,176.5C 677.382,182.053 671.549,183.886 664.5,182C 658.975,179.081 657.142,174.581 659,168.5C 659.785,166.714 660.951,165.214 662.5,164C 668.623,162.143 674.623,160.309 680.5,158.5 Z"/></g>
<g><path style="opacity:0.945" fill="#fefdfe" d="M 730.5,114.5 C 736.893,114.207 743.227,114.54 749.5,115.5C 750.828,142.733 750.828,169.899 749.5,197C 742.918,197.81 736.418,197.643 730,196.5C 728.878,182.377 728.378,168.211 728.5,154C 728.667,141.5 728.833,129 729,116.5C 729.717,115.956 730.217,115.289 730.5,114.5 Z"/></g>
<g><path style="opacity:0.05" fill="#ececec" d="M 361.5,150.5 C 347.323,150.171 333.323,150.504 319.5,151.5C 318.957,151.44 318.624,151.107 318.5,150.5C 332.994,149.174 347.328,149.174 361.5,150.5 Z"/></g>
<g><path style="opacity:0.084" fill="#f3f3f3" d="M 319.5,177.5 C 335.325,178.496 351.325,178.83 367.5,178.5C 351.328,179.827 334.995,179.827 318.5,178.5C 318.624,177.893 318.957,177.56 319.5,177.5 Z"/></g>
</svg>
